<svg width="320" height="94" viewBox="0 0 320 94" fill="none" xmlns="http://www.w3.org/2000/svg">
<path fill-rule="evenodd" clip-rule="evenodd" d="M75.7478 83.0614C76.6328 83.911 77.6948 83.2738 81.164 79.6984C87.7838 72.9016 91.7132 65.4322 93.6248 56.1221C94.5098 51.7679 94.5806 43.3073 93.8018 38.6699C90.4742 19.7663 75.7478 4.79212 56.4548 0.721129C53.198 0.0485296 44.7729 -0.23467 41.4099 0.225529C38.3301 0.650329 33.5157 1.81853 31.0377 2.77433L29.1615 3.48232L30.5067 4.08412C33.1263 5.28772 35.9229 9.18172 39.2859 16.2617C40.5249 18.8105 42.0471 22.4921 42.7551 24.4391C43.9941 28.0145 45.4809 33.8201 45.4809 35.2007C45.4809 35.9795 45.7287 36.0857 46.6845 35.7317C47.18 35.5547 47.2509 34.5281 47.2509 28.1915C47.2509 24.1913 47.3925 19.5893 47.6049 17.9963C48.2421 12.3677 51.1094 5.67712 53.6936 3.73012C55.2158 2.56193 57.7292 2.52653 59.1806 3.58852C61.1984 5.11072 62.756 11.8721 62.9684 20.0141C63.0746 24.2267 63.0392 24.5099 62.8622 21.6071C62.6163 18.3395 62.6144 18.4895 62.5452 24.1336L62.5436 24.2621C62.5082 27.6605 62.3312 30.2447 62.1896 30.0323C62.0126 29.7845 61.871 26.0321 61.8356 21.7133C61.7648 13.8545 60.986 7.27012 60.3134 8.40292C60.1718 8.65072 60.2072 9.04012 60.4196 9.28792C60.632 9.57112 60.7028 9.88972 60.5612 9.99592C60.2072 10.3499 59.6408 9.32332 59.8178 8.68612C59.9948 8.04892 59.216 4.93372 58.7912 4.54432C58.6142 4.40272 58.5788 4.50892 58.7204 4.79212C58.862 5.07532 58.7204 5.00452 58.4018 4.61512C57.9062 4.01332 57.8 3.97792 57.4814 4.43812C57.1982 4.86292 57.1628 4.79212 57.3398 4.15492C57.5168 3.48232 57.4106 3.37612 56.6672 3.37612C55.0742 3.37612 52.844 5.46472 51.428 8.33212C48.7376 13.7129 48.2421 18.0317 48.9146 30.6695L49.127 35.1299L51.8174 35.3423C53.3042 35.4485 54.791 35.6609 55.0742 35.7671C55.5344 35.9441 55.499 35.3777 54.968 31.6253C53.6582 22.7753 53.6228 13.5713 54.8618 9.92512C55.6406 7.69492 56.6672 6.20812 57.446 6.20812C58.8974 6.20812 58.9682 7.02232 58.9328 22.5275C58.9328 36.4043 58.9682 37.3955 59.5346 37.6079C61.9064 38.4221 66.119 42.4931 68.1368 45.8561C69.4466 48.0863 71.6768 54.6353 71.6768 56.3344C71.6768 57.184 73.1636 58.6 74.1194 58.6C74.792 58.6 77.6948 61.2196 77.6948 61.786C77.6948 62.0338 77.978 62.1046 78.4028 61.963C79.1816 61.7152 79.2524 61.8922 79.8188 66.2818C80.0312 67.8748 80.0666 69.6094 79.925 70.1758C79.6772 71.0962 79.6418 71.0608 79.4648 69.574L79.2878 67.981L78.155 69.5386C77.1992 70.8484 75.677 72.2644 72.668 74.707C71.0396 76.0522 68.4908 76.6894 66.3668 76.3L64.88 76.0168L66.2606 77.4328C67.0394 78.247 69.1988 79.6276 71.4998 80.7958C73.6592 81.8578 75.5354 82.8844 75.7478 83.0614ZM131.963 7.16392C129.733 5.74792 127.184 4.57972 125.485 4.15492C119.467 2.73893 112.918 3.87172 109.413 6.98692C107.218 8.89852 106.369 10.6331 106.369 13.1111C106.369 15.7307 107.36 17.6423 109.413 18.9521C111.608 20.3327 113.378 20.6513 120.175 20.8991C126.865 21.1469 128.706 21.6071 130.547 23.3771C132.565 25.3241 132.742 28.4747 130.972 30.5633C129.768 32.0147 126.511 33.3599 123.042 33.8201C116.776 34.6697 111.325 33.2183 107.36 29.6429L105.979 28.4039L104.917 29.4659L103.82 30.5279L105.732 32.1209C108.28 34.2803 109.661 35.0237 112.564 35.9441C117.343 37.3955 124.14 37.2185 128.494 35.5193C131.149 34.4573 133.45 32.6165 134.335 30.7757C134.972 29.5013 135.078 28.7225 134.972 26.6339C134.866 24.4745 134.689 23.8373 133.733 22.4921C132.565 20.7929 130.264 19.3061 127.786 18.6335C127.007 18.4211 123.432 18.1025 119.821 17.9255C115.254 17.7131 112.882 17.4299 111.962 17.0405C108.316 15.4829 108.21 11.2349 111.75 8.68612C113.838 7.16392 116.21 6.56212 120.069 6.56212C123.786 6.56212 126.618 7.30552 129.485 9.07552C130.405 9.64192 131.29 10.1021 131.467 10.1021C131.68 10.1021 132.14 9.64192 132.565 9.04012L133.308 8.01352L131.963 7.16392ZM161.699 22.4921C164.248 22.4567 167.575 19.4831 168.46 16.4387C169.168 14.1377 169.168 12.8279 168.531 10.6685C167.788 8.19052 166.407 6.45592 164.318 5.28772L162.478 4.26112L151.256 4.15492L139.999 4.04872V20.1557V36.2981H141.415H142.831V29.5721V22.8461H149.875H156.884L160.92 29.5721L164.956 36.2981H166.655C167.668 36.2981 168.09 36.2981 168.166 36.1357C168.22 36.0202 168.1 35.8224 167.894 35.4839C164.956 30.8819 160.531 23.1293 160.708 22.8461C160.814 22.6691 161.274 22.4921 161.699 22.4921ZM54.6848 37.0061C52.8794 36.6167 47.8526 36.5813 46.5429 36.9707C45.6225 37.2539 45.6225 37.2893 46.0473 40.0151C46.1889 40.9001 46.1535 41.2895 45.9411 41.0771C45.6225 40.7231 45.3039 39.4841 43.6755 32.5811C43.0029 29.6429 41.9409 26.3507 40.2417 21.9611C37.6221 15.2351 32.6307 7.16392 29.9757 5.42932C28.0641 4.15492 25.9755 5.00452 24.2409 7.80112C23.3205 9.28792 23.1789 13.8545 23.9931 17.0051C25.8339 24.2621 27.0375 27.4127 30.8607 35.1653L34.1883 41.9975L33.9405 44.0153C33.7989 45.1127 33.6927 46.5641 33.6927 47.1659C33.7281 47.8031 33.6219 48.2633 33.5157 48.1925C33.3741 48.1217 33.2325 49.1129 33.1617 50.3873C33.0909 51.6617 32.7369 53.4671 32.3829 54.4229C32.0289 55.3433 31.8873 56.0159 32.0643 55.9096C32.8785 55.4141 31.8873 57.4672 29.8341 60.4762C28.3827 62.5648 28.0287 63.6268 29.1261 62.8126C29.8126 62.2634 29.8001 62.2801 27.9589 64.7348L27.7809 64.972C27.1236 65.842 26.8252 66.2369 26.8628 66.2719C26.894 66.3011 27.1572 66.0818 27.6391 65.6802L27.6392 65.6801L27.6393 65.68C28.2057 65.2198 29.1969 64.3348 29.8695 63.733L31.0731 62.671L30.4005 63.8038C30.0465 64.441 29.6571 64.972 29.5155 64.972C29.3739 64.972 29.1615 65.2198 29.0553 65.5384C28.8429 66.034 28.9491 66.034 29.7987 65.4676C30.7191 64.8658 30.7191 64.9366 29.5863 66.211C28.8075 67.1314 28.5243 67.627 28.8429 67.7332C29.0907 67.8394 29.6571 67.45 30.0819 66.8836C30.5421 66.3172 31.0023 65.9632 31.1439 66.1048C31.4271 66.3526 31.3209 66.6004 30.4359 68.158C29.9757 68.9368 29.9757 69.043 30.4713 69.1492C30.7899 69.22 31.3209 69.0076 31.7103 68.6536C32.5245 67.9456 32.6307 68.3704 31.8519 69.22C31.3209 69.7864 31.4625 70.99 32.0289 70.99C32.1705 70.99 32.5599 70.5652 32.9139 70.0696C33.2325 69.574 33.5865 69.2554 33.6927 69.3616C33.7989 69.4678 33.6219 69.7864 33.3033 70.105C33.0201 70.4236 32.8077 71.0254 32.8785 71.4502C32.9847 71.875 33.0555 72.3706 33.0555 72.5122C33.0909 72.6538 33.5157 72.3352 34.0113 71.8042C34.5423 71.2732 34.7547 71.0962 34.5423 71.4148C34.2945 71.7334 34.0467 72.6184 33.9759 73.3264C33.9051 74.2114 33.9759 74.4946 34.1883 74.1406C34.3653 73.8574 34.5069 73.291 34.5069 72.8308C34.5069 72.406 34.6839 72.052 34.8963 72.052C35.1087 72.052 35.1795 72.3352 35.0379 72.7246C34.7547 73.645 35.4273 73.999 35.9229 73.2202C36.2769 72.6538 36.3123 72.6538 36.1707 73.3618C36.0291 73.9636 36.2415 74.2822 36.9849 74.6362C37.8345 75.061 37.9761 75.061 38.3655 74.5654C38.6841 74.1052 38.7195 74.2468 38.5779 75.238C38.4009 76.3354 38.4363 76.4062 38.8611 75.8752C39.2505 75.3796 39.3921 75.3796 39.6753 75.769C39.8523 76.0522 40.5603 76.3354 41.2683 76.4416C42.3657 76.6186 42.6489 76.5124 43.1445 75.769C43.7817 74.7778 45.9057 74.1052 47.2155 74.4238C47.7111 74.53 48.9854 75.3796 50.0474 76.2646C51.9236 77.8576 51.9944 77.893 54.4724 77.893C56.8088 77.893 57.1274 77.7868 59.0744 76.477L59.6039 76.1174C62.9341 73.855 62.9551 73.8407 63.3932 74.2114C63.6056 74.3884 64.349 74.5654 64.9862 74.6008C67.3226 74.6716 68.42 74.176 70.0484 72.2998C71.1104 71.0962 71.5706 70.7776 71.429 71.2732C71.2874 71.9104 71.3582 72.0166 71.8538 71.8042C72.314 71.6626 72.4202 71.698 72.2432 72.0166C72.1016 72.229 71.6768 72.3352 71.3228 72.229C70.5086 71.9812 70.0838 72.9724 70.898 73.291C71.8184 73.645 74.7212 70.1758 75.2168 68.0872C75.7124 66.1402 75.3938 62.8126 74.5442 61.1842C74.0132 60.1576 71.7122 58.246 70.9688 58.246C70.6502 58.246 70.5086 57.715 69.9068 53.9981C69.305 50.3519 66.5084 44.9711 63.818 42.2453C61.4108 39.8381 57.5876 37.6433 54.6848 37.0061ZM24.3117 64.795L22.8957 66.0694L23.5683 64.7242C24.4179 63.025 27.7455 59.2372 28.1349 59.485C28.7367 59.839 30.3297 56.4407 30.9669 53.5379C32.9139 44.4047 33.1263 41.9975 32.1705 40.1567C26.9313 30.1739 25.0551 25.6781 23.3205 19.0583C22.0461 14.1377 22.0815 9.11092 23.4267 7.05772C23.7099 6.59752 23.8869 6.20812 23.7807 6.20812C22.9665 6.20812 17.3379 10.5977 14.2935 13.6421C7.1427 20.7575 2.68231 29.3243 1.05391 39.0593C0.133514 44.4755 0.452114 53.5733 1.69111 58.3168C3.35491 64.618 6.04531 70.3174 9.5853 75.061C11.6031 77.8222 15.9927 82.2826 18.6123 84.3004L20.7009 85.8934L21.6921 85.2208C24.2055 83.4154 33.7635 80.194 36.5955 80.194C38.1885 80.194 38.4363 80.1232 38.0823 79.6984C37.6221 79.132 38.1531 78.5656 38.7549 78.955C38.9673 79.0612 39.1089 78.9904 39.1089 78.8134C39.1089 78.601 38.8611 78.424 38.5779 78.424C38.2947 78.424 38.0469 78.247 38.0469 78.07C38.0469 77.8576 37.7283 77.716 37.3743 77.716C36.9849 77.716 36.4539 77.4682 36.1353 77.185C35.8521 76.9018 35.4627 76.654 35.2503 76.654C34.5777 76.654 32.3829 75.1672 32.3829 74.707C32.3829 74.4592 32.1705 74.0698 31.8873 73.8574C31.3917 73.4326 30.5067 73.9636 30.1527 74.9548C29.7633 76.0522 29.4801 74.7424 29.8341 73.5388C30.1527 72.4414 30.1527 72.3352 29.7633 72.8308C29.1261 73.7158 28.9137 73.6096 29.0199 72.583C29.1615 71.3794 28.5951 71.1316 27.6393 72.0166C26.7543 72.8662 25.6569 73.0078 25.6569 72.2644C25.6569 72.0166 25.9755 71.3794 26.3649 70.8838C27.2499 69.751 27.2853 69.2908 26.4003 70.0696C25.5507 70.8484 25.1613 70.3174 25.6569 69.043C26.1525 67.6978 26.1171 67.273 25.4799 67.804C25.1967 68.0518 24.9489 68.4412 24.9489 68.689C24.9489 68.9368 24.7011 69.3262 24.4179 69.574C23.5329 70.3174 23.7807 69.3616 25.0197 67.1314L26.1171 65.149L25.0197 66.1756C24.3825 66.7774 23.8869 67.0606 23.8869 66.8836C23.8869 66.4234 24.9135 64.9012 25.5861 64.3702C25.9047 64.1224 26.0463 63.8392 25.9401 63.6976C25.7985 63.5914 25.0905 64.087 24.3117 64.795ZM55.5698 13.9253C55.7114 13.7837 56.207 13.8191 56.6672 13.9961C57.7292 14.4209 57.9416 13.7129 57.8 10.3145C57.6938 7.94272 57.1982 7.02232 56.5964 8.01352C56.4548 8.26132 56.5256 8.54452 56.738 8.61532C56.9858 8.68612 57.1628 8.89852 57.1628 9.11092C57.1628 9.32332 56.9504 9.39412 56.6672 9.28792C56.384 9.18172 56.0654 9.32332 55.9592 9.60652C55.6052 10.5269 55.2866 14.2085 55.5698 13.9253ZM56.03 28.2977C56.1716 28.0853 56.561 27.9437 56.915 28.0145C57.3398 28.0499 57.5168 27.8375 57.5522 27.1649C57.5876 26.4569 57.6938 26.5631 57.8708 27.6251C58.0124 28.4039 58.1186 25.8551 58.1186 21.9611C58.1186 18.0671 58.0124 15.9077 57.9062 17.1821L57.9013 17.2335C57.6938 19.3774 57.6913 19.4031 57.3752 18.2441C57.1982 17.5715 57.0212 16.7573 56.9858 16.4387C56.9504 16.1201 56.8088 15.6953 56.6672 15.4475C56.5256 15.2351 56.1008 14.8811 55.676 14.6687C54.968 14.2793 54.9326 14.3147 55.1096 19.5185C55.2158 23.0939 55.3928 24.7931 55.676 24.8993C55.9238 24.9701 56.1008 25.5011 56.1008 26.0675C56.1008 26.8817 56.2424 27.0233 56.738 26.8463C57.1274 26.7047 57.092 26.8463 56.561 27.2357C56.1008 27.5897 55.7468 28.0499 55.7468 28.2623C55.7468 28.5809 55.8176 28.5809 56.03 28.2977ZM176.142 36.3689C178.478 38.3159 181.912 35.2361 180.107 32.8289C179.576 32.1209 179.045 31.8377 177.983 31.7669C176.779 31.6607 176.425 31.8023 175.753 32.6519C174.832 33.8201 175.009 35.4485 176.142 36.3689ZM240.889 51.0953C239.012 49.4315 235.968 47.8031 233.384 47.1305C230.87 46.4933 226.233 46.2101 224.18 46.5641C215.365 48.1217 209.772 54.5291 209.737 63.025C209.737 71.0254 214.976 77.6098 222.693 79.3444C224.144 79.663 225.313 79.9816 225.313 80.0878C225.313 80.1586 224.817 80.9728 224.18 81.8578C222.799 83.911 223.082 84.6898 225.206 84.5128C227.33 84.3358 228.569 85.8226 227.224 86.9554C226.587 87.4864 224.109 87.4864 222.693 86.92C221.843 86.6014 221.702 86.6722 221.419 87.4864C220.888 88.867 220.958 88.9732 222.835 89.3626C226.587 90.1768 229.561 89.6458 230.764 87.9466C231.331 87.097 231.508 85.327 231.118 84.265C230.8 83.4508 229.1 82.672 227.614 82.672C226.941 82.672 226.375 82.6012 226.375 82.495C226.375 82.3888 226.729 81.787 227.153 81.1498C227.826 80.0878 228.145 79.9462 230.587 79.5568C233.738 79.0612 237.278 77.4682 240.499 75.061L242.765 73.3972L241.667 72.3352L240.605 71.2732L238.694 72.6892C231.189 78.3886 222.197 78.247 216.427 72.3706C213.1 69.0076 211.861 64.3702 213.064 59.662C214.126 55.4849 216.64 52.6175 221.065 50.4935C222.87 49.6439 223.366 49.5731 227.614 49.5731C232.853 49.6085 234.729 50.1395 237.844 52.5113C238.8 53.2193 239.791 53.9627 240.039 54.1751C240.393 54.4229 240.782 54.2459 241.49 53.5379L242.482 52.5467L240.889 51.0953ZM135.22 51.1661C133.662 49.5377 131.078 47.9801 128.635 47.2367C126.087 46.4225 120.246 46.3517 117.591 47.0951C112.776 48.4049 108.457 51.9449 106.333 56.299C105.165 58.7062 105.13 58.8832 105.13 63.202C105.13 67.45 105.165 67.7332 106.263 70.0342C109.201 76.2292 115.325 79.84 122.759 79.84C129.627 79.8046 135.68 76.5124 136.777 72.229C136.99 71.3794 137.167 68.7598 137.167 66.4234V62.14H129.91H122.653V63.556V64.972H128.317H133.981V68.512C133.981 71.9104 133.945 72.052 132.919 73.2202C130.618 75.8752 124.918 77.4328 120.246 76.6894C113.909 75.7336 109.661 72.1936 108.28 66.742C105.873 57.2194 113.449 48.8651 123.998 49.4669C127.573 49.6793 129.556 50.4227 132.494 52.6529L134.406 54.0689L135.326 53.1485L136.246 52.2281L135.22 51.1661ZM246.588 65.503C247.65 74.1406 256.111 80.5834 265.315 79.6984C274.448 78.8488 280.891 71.9104 280.891 62.9188C280.891 56.653 277.351 51.2015 271.403 48.2633C268.536 46.8119 268.359 46.7765 264.323 46.6703C260.713 46.5641 259.898 46.6349 257.81 47.3783C249.951 50.1395 245.597 57.184 246.588 65.503ZM171.186 79.132H172.85L165.026 63.025L157.203 46.9181H155.893C155.185 46.9181 154.442 47.1305 154.229 47.3429C154.017 47.5907 152.743 50.1041 151.398 52.9361C150.052 55.7681 146.618 62.8126 143.787 68.5828L138.618 79.132H140.282L141.946 79.0966L144.672 73.468L147.397 67.804H155.716H164.035L166.761 73.468L169.487 79.132H171.186ZM197.807 65.326C200.356 65.2906 203.683 62.317 204.568 59.2726C205.276 56.9716 205.276 55.6618 204.639 53.5025C203.896 51.0245 202.515 49.2899 200.426 48.1217L198.586 47.0951L187.364 46.9889L176.107 46.8827V62.9896V79.132H177.523H178.939V72.406V65.68H185.983H192.992L197.028 72.406L201.064 79.132H202.763C203.776 79.132 204.198 79.132 204.274 78.9697C204.328 78.8541 204.208 78.6564 204.002 78.3178C201.064 73.7158 196.639 65.9632 196.816 65.68C196.922 65.503 197.382 65.326 197.807 65.326ZM318.167 46.9889L316.821 47.0951L311.051 56.653C310.08 58.2682 309.126 59.8531 308.257 61.2947L308.246 61.3128C306.304 64.5385 304.796 67.043 304.502 67.5562L303.688 68.9014L297.21 57.9274L290.696 46.9181H289.351H287.971V63.025V79.132H289.387H290.803L290.873 66.1402L290.98 53.1485L297.316 63.8392C300.821 69.751 303.759 74.4238 303.901 74.2822C304.042 74.1406 306.909 69.3262 310.308 63.5914L316.467 53.1839L316.574 66.1402L316.645 79.132H318.06H319.476V62.9896V46.8827L318.167 46.9889ZM76.9868 61.786C77.1638 62.0692 77.3408 62.14 77.3408 61.963C77.3408 61.7506 77.1638 61.3612 76.9868 61.078C76.8098 60.7948 76.6328 60.6886 76.6328 60.901C76.6328 61.078 76.8098 61.5028 76.9868 61.786ZM76.5974 70.282C76.9868 69.7864 77.4116 68.866 77.5532 68.2288C77.6948 67.5916 77.6948 66.9544 77.5532 66.8482C77.447 66.7066 77.3408 66.9898 77.3408 67.4146C77.3408 67.8394 77.0222 68.866 76.5974 69.6802L76.5973 69.6804C76.2102 70.4934 76.0348 70.8618 76.0711 70.884C76.1012 70.9024 76.2766 70.6831 76.5974 70.2821L76.5974 70.282ZM78.7922 67.45C79.0046 66.9544 79.0754 65.7154 78.9338 64.6888C78.7922 63.6976 78.5444 62.848 78.332 62.848C78.0842 62.848 78.0134 63.4852 78.1904 64.6888C78.2966 65.7154 78.4028 66.9544 78.4382 67.45V68.335L78.7922 67.45ZM27.0729 71.6626C27.6393 70.6006 27.3561 70.5652 26.6127 71.5564C26.2587 72.0166 26.1525 72.406 26.3295 72.406C26.5419 72.406 26.8605 72.0874 27.0729 71.6626ZM49.1978 86.8138C48.8438 87.2386 46.0119 88.336 45.2685 88.336C44.5959 88.336 44.0295 86.1058 43.4985 81.61C43.3923 80.725 43.2153 79.9108 43.0737 79.8046C42.6489 79.4152 40.9851 79.132 40.7373 79.3798C40.2417 79.9108 40.6311 81.3622 42.1533 84.6544C43.7109 88.0174 44.2065 89.2564 45.3747 92.4778L45.9057 94H48.8084C50.366 94 52.5254 93.8938 53.5874 93.7522L55.499 93.5398L55.2512 90.6016C55.0034 87.2386 54.7556 86.2474 54.2954 86.9908C54.1184 87.274 53.9768 86.6722 53.9768 85.3978C53.9768 83.3092 53.5874 82.849 52.9148 84.088C52.7024 84.4774 52.3838 84.796 52.1714 84.796C51.782 84.796 49.7288 86.1766 49.1978 86.8138ZM66.0482 80.7604C66.0482 81.1498 66.1544 81.256 66.2606 80.9728C66.3668 80.725 66.3314 80.4064 66.2252 80.3002C66.119 80.1586 66.0128 80.371 66.0482 80.7604ZM76.3142 84.3712L75.146 83.6278C74.5088 83.2384 72.8096 82.3888 71.3936 81.7162C69.2342 80.725 68.8094 80.6542 68.951 81.1498C69.0572 81.5038 69.2342 82.2472 69.3404 82.849C69.6236 84.1588 71.0042 87.628 71.2166 87.628C71.3228 87.628 72.5264 86.8846 73.8716 85.9996L76.3142 84.3712ZM33.0909 92.0176L33.9051 91.2388C35.0733 90.1414 36.4185 84.6898 36.0645 82.495L36.0608 82.469C35.968 81.8195 35.9028 81.3625 35.6394 81.1313C35.0145 80.5829 33.2746 81.3049 27.4071 83.7395L27.407 83.7396L27.2499 83.8048C23.4975 85.3624 22.1169 86.1058 22.1169 86.566C22.1169 86.9908 26.8251 89.4688 30.1527 90.814L33.0909 92.0176ZM64.9508 87.628H63.6764C62.8268 87.628 61.694 87.2032 60.278 86.2828C59.1098 85.5748 57.446 84.442 56.5964 83.8402C56.5235 83.7855 56.4534 83.7326 56.3863 83.682L56.3862 83.6819L56.3861 83.6819C55.7875 83.2302 55.4177 82.9511 55.2265 83.0431C54.9175 83.192 55.0758 84.311 55.4899 87.2393L55.5698 87.805C55.7816 89.217 55.9621 90.629 56.0802 91.5521L56.0802 91.5525L56.0802 91.5527L56.0802 91.5528C56.1397 92.018 56.1833 92.359 56.207 92.5132C56.2424 93.2566 56.384 93.3274 57.5168 93.115C58.1894 93.0088 60.278 92.3716 62.1188 91.7344L65.4818 90.6016L65.588 88.8316C65.6234 87.8758 65.5526 86.212 65.3756 85.15L65.0216 83.203L64.9862 85.3978L64.9508 87.628ZM59.4638 10.8101C59.5346 11.3057 59.6408 12.3677 59.6408 13.2173C59.6408 14.2793 59.7824 14.6687 60.0302 14.4917C60.3488 14.3147 60.4196 17.0405 60.278 25.3595C60.101 36.5105 60.2426 37.8203 61.0568 31.8731C61.517 28.4747 61.3754 12.7571 60.8798 11.2349C60.5966 10.4207 59.8886 10.1021 60.1364 10.8809C60.5966 12.3323 60.6674 13.2881 60.3488 13.2881C60.1718 13.2881 59.9948 12.8633 59.9594 12.2969C59.9594 11.7659 59.7824 11.0225 59.6054 10.6331C59.3222 10.0313 59.2868 10.0313 59.4638 10.8101ZM60.9506 20.7929C60.8444 21.0761 60.7382 20.9699 60.7382 20.5805C60.7028 20.1911 60.809 19.9787 60.9152 20.1203C61.0214 20.2265 61.0568 20.5451 60.9506 20.7929ZM59.8886 20.4389C59.7824 20.7221 59.6762 20.6159 59.6762 20.2265C59.6408 19.8371 59.747 19.6247 59.8532 19.7663C59.9594 19.8725 59.9948 20.1911 59.8886 20.4389ZM61.8356 32.7581C61.8356 33.2537 61.9064 33.4307 62.0126 33.1829C62.0834 32.9705 62.0834 32.5457 62.0126 32.2979C61.9064 32.0855 61.8356 32.2625 61.8356 32.7581ZM142.831 19.6601V13.4651V7.27013H152.141C161.097 7.27013 161.486 7.30553 163.009 8.04893C165.097 9.11093 166.018 10.7393 165.982 13.2881C165.982 15.9077 164.885 17.9963 163.009 18.9521C161.734 19.6247 160.955 19.6601 152.212 19.6601H142.831ZM26.7542 8.22594C25.586 9.35874 24.7718 10.8455 24.4532 12.4739C24.0638 14.2793 25.1258 19.3061 27.2498 25.8551C28.064 28.2623 30.4712 33.1475 30.7544 32.8643C30.896 32.7227 30.896 32.8289 30.7898 33.1475C30.6128 33.6077 32.2766 36.1565 34.5776 38.8469L35.3918 39.8381L38.0468 38.9531C39.4982 38.4575 40.808 38.0681 40.9496 38.0681C41.0912 38.0681 41.2328 38.6699 41.2328 39.4133C41.2328 40.2983 41.4806 41.0063 41.87 41.3603C42.755 42.1745 43.109 42.1037 42.6488 41.2541C42.4364 40.8293 42.2948 39.9443 42.3656 39.2009C42.4364 38.2097 42.6488 37.8557 43.1798 37.7849C44.525 37.5371 44.6666 36.9353 43.3568 37.0769L42.1178 37.1831L41.7284 34.8821C41.1974 31.7315 39.1796 25.1117 37.3388 20.5451C35.144 14.9873 33.197 11.3765 31.073 8.82774C29.48 6.95154 28.2764 6.77454 26.7542 8.22594ZM27.6392 9.00474C27.533 9.14634 27.8162 9.21714 28.2764 9.14634C28.9136 9.00474 29.3738 9.32334 30.3296 10.5269C30.9668 11.3411 31.7456 12.4739 32.0288 13.0049C32.2766 13.5713 32.6306 13.9961 32.8076 13.9961C32.9846 13.9961 33.02 14.1377 32.9138 14.3501C32.8076 14.5271 32.8784 14.7041 33.0908 14.7041C33.3032 14.7041 33.4094 14.8457 33.3032 15.0227C33.1616 15.1997 33.2324 15.4121 33.374 15.4829C34.1528 15.8015 38.7194 27.9437 39.923 32.9351C40.0195 33.3272 40.1089 33.6805 40.1895 33.9995L40.1896 33.9997C40.6115 35.6675 40.7961 36.3974 40.5199 36.8393C40.305 37.1831 39.8111 37.3526 38.9328 37.6539C38.7005 37.7337 38.4412 37.8226 38.153 37.9265L35.4626 38.9177L34.4006 37.6787C32.7722 35.8025 28.3472 26.3153 26.8958 21.6071C24.9488 15.3767 24.878 12.1907 26.648 9.46494C27.1082 8.75694 28.064 8.29674 27.6392 9.00474ZM64.3136 56.6176C64.1012 53.8565 64.4198 52.2281 65.3402 51.0245C66.3668 49.7147 67.2872 49.8563 68.066 51.4139C69.4112 54.1043 69.3404 57.6442 67.8536 59.6266C66.2606 61.786 64.6322 60.37 64.3136 56.6176ZM67.2518 54.7061C67.6766 54.3521 67.712 54.1397 67.3934 53.7857C66.8624 53.1485 66.4022 53.1485 66.119 53.8565C65.8004 54.6707 66.5792 55.2725 67.2518 54.7061ZM41.8346 51.5555C39.4982 52.9361 39.7106 60.0161 42.1178 61.5737C43.1444 62.2463 44.7374 62.2817 45.5162 61.6799C47.0738 60.4763 47.534 55.6619 46.3304 53.2193C45.41 51.4139 43.3922 50.6705 41.8346 51.5555ZM45.4808 54.7769C45.4808 55.9097 44.525 56.5469 44.0294 55.7327C43.5692 54.9893 43.64 53.3609 44.171 53.1839C44.879 52.9361 45.4808 53.6441 45.4808 54.7769ZM56.2424 66.4943C53.1626 64.3349 53.0564 63.7331 55.499 62.5295C56.384 62.0693 57.6938 61.7861 58.685 61.7861C60.278 61.7861 60.4196 61.8569 60.8798 63.0251C61.517 64.5119 61.0922 65.8571 59.8178 66.4589C58.7558 66.9545 58.4372 67.7687 58.9328 69.0077C59.393 70.2821 60.1718 70.4945 61.5524 69.7511C63.0746 68.9369 64.1012 69.2201 63.464 70.2821C63.2162 70.7069 62.4728 71.3441 61.8356 71.7335L60.7028 72.4769L59.4284 71.7335L58.154 70.9901L56.9858 71.6981C55.4282 72.6539 53.375 72.6185 52.313 71.6273C51.4634 70.8131 51.1094 69.5387 51.959 70.1759C52.667 70.7423 55.676 70.4591 56.4548 69.7511C57.4814 68.8307 57.3752 67.2731 56.2424 66.4943ZM59.0036 62.9189C58.685 63.2375 58.5788 63.2375 58.5788 62.9189C58.5788 62.4233 57.8354 62.4233 56.207 62.8835C54.968 63.2375 54.4724 63.7331 55.0388 64.0871C55.2158 64.1933 55.3928 64.1225 55.3928 63.9455C55.3928 63.7331 55.5698 63.5561 55.7822 63.5561C55.9946 63.5561 56.1008 63.7685 55.9946 64.0517C55.853 64.4411 56.03 64.4765 57.092 64.1933C57.8 63.9809 58.8266 63.8039 59.393 63.7685C60.455 63.7331 60.5966 63.4853 59.8886 62.8835C59.5346 62.6003 59.2868 62.6357 59.0036 62.9189ZM74.5442 67.6625C74.5442 68.0518 74.6504 68.1581 74.7566 67.8748C74.8628 67.6271 74.8274 67.3084 74.7212 67.2022C74.615 67.0607 74.5088 67.273 74.5442 67.6625ZM74.1194 69.928C73.9424 69.928 73.8716 69.751 73.9778 69.574C74.084 69.3616 74.261 69.22 74.3672 69.22C74.438 69.22 74.5088 69.3616 74.5088 69.574C74.5088 69.751 74.3318 69.928 74.1194 69.928ZM55.4282 16.3325C55.4282 16.7219 55.5344 16.8281 55.6406 16.5449C55.7468 16.2971 55.7114 15.9785 55.6052 15.8723C55.499 15.7307 55.3928 15.9431 55.4282 16.3325ZM249.916 58.8479C251.084 55.0601 254.801 51.4139 258.766 50.1041C260.429 49.5377 261.668 49.4315 264.288 49.5023C267.297 49.5731 267.934 49.7147 270.023 50.7413C278.802 55.0601 280.713 66.4588 273.74 72.9724C266.73 79.5214 254.765 77.5036 250.624 69.0784C249.278 66.3526 248.96 61.8214 249.916 58.8479ZM152.53 57.4319C151.232 60.1343 150.092 62.5591 149.572 63.6674C149.396 64.04 149.291 64.2638 149.273 64.2994C149.203 64.4764 152.105 64.618 155.716 64.618C159.327 64.618 162.301 64.5118 162.301 64.3348C162.301 64.087 156.07 51.2015 155.822 50.9537C155.752 50.8829 154.265 53.7857 152.53 57.4319ZM178.939 62.4941V56.2991V50.1041H188.249C197.205 50.1041 197.594 50.1395 199.117 50.8829C201.205 51.9449 202.126 53.5733 202.09 56.1221C202.09 58.7417 200.993 60.8303 199.117 61.7861C197.842 62.4587 197.063 62.4941 188.32 62.4941H178.939Z" fill="white"/>
</svg>
